<svg xmlns="http://www.w3.org/2000/svg" xmlns:xlink="http://www.w3.org/1999/xlink" width="1920" height="1080" viewBox="0 0 1920 1080">
  <defs>
    <clipPath id="clip-path">
      <rect id="Rectángulo_3529" data-name="Rectángulo 3529" width="1920" height="1080" fill="#fff" stroke="#707070" stroke-width="1"/>
    </clipPath>
  </defs>
  <g id="Enmascarar_grupo_5170" data-name="Enmascarar grupo 5170" clip-path="url(#clip-path)">
    <g id="Grupo_5271" data-name="Grupo 5271" transform="translate(-56.553 -243.874)">
      <g id="Grupo_5269" data-name="Grupo 5269" transform="translate(-147.447 0)">
        <path id="Trazado_9083" data-name="Trazado 9083" d="M417.163,533.055c-73.782,42.138-182.4,40.527-239.891-28.374-.284-.343-.568-.68-.852-1.024A146.193,146.193,0,0,1,148.6,449.974c-10.185-36.716-4.419-78.636,13.632-112,16.551-30.587,50.645-62.223,88.239-54.02,69.324,15.145,67.765,125.1,47.759,174.564-6.7,16.558-14.081,33.592.284,48.571,7.609,7.945,18.85,11.816,29.847,11.789,21.716-.059,42.693-14.194,56.378-30.283,13.077-15.369,21.769-34.166,28.691-52.97,26.485-72.071,10.059-156.579-39.318-214.958-64.72-76.523-171.083-75.426-252.546-27.086C24.478,251.2-22.423,377.025,11.2,485.329c34.84,112.254,143.118,197.423,258.6,212.428q8.8,1.139,17.641,1.737C455.7,710.756,610.445,583.179,656.42,425.16c.443-1.532.872-3.051,1.294-4.584q4.914-17.744,8.038-35.923c5.852-34.015,9.022-69.3,5.588-103.754-6.367-71.3-34.589-133.535-41.035-147.015A222.1,222.1,0,0,1,499.7,202.6C551.86,314.266,529.418,468.93,417.163,533.055Z" transform="translate(-0.375 747.913)" fill="none" stroke="#10cfc9" stroke-miterlimit="10" stroke-width="0.75"/>
        <path id="Trazado_9084" data-name="Trazado 9084" d="M55.544,198.09A102.668,102.668,0,1,0,158.215,95.419,102.673,102.673,0,0,0,55.544,198.09Z" transform="translate(308.836 532.326)" fill="none" stroke="#10cfc9" stroke-miterlimit="10" stroke-width="0.75"/>
        <path id="Trazado_9085" data-name="Trazado 9085" d="M153.768,262.467c32.971-78.306,120.2-143.059,207.733-123.3.436.106.865.2,1.295.3a146.073,146.073,0,0,1,54.72,25.719c30.408,22.965,51.319,59.753,57.263,97.222,5.449,34.345-2.391,80.195-37.231,96.528C373.3,389.054,307.7,300.795,293.518,249.364c-4.749-17.219-9.24-35.23-29.754-38.4-10.871-1.678-22.146,2.074-30.864,8.784-17.205,13.249-25.276,37.224-26.36,58.313-1.044,20.158,3.481,40.368,9.418,59.5,22.78,73.326,87.189,130.45,161.889,146.784,97.9,21.419,181.7-44.107,216.992-132,42.072-104.771,2.82-233.194-89.706-298.753-95.9-67.963-233.65-69.773-334.471-11.486q-7.678,4.438-15.059,9.346C15.148,144.8-30.174,340.159,29.374,493.574c.581,1.486,1.169,2.959,1.757,4.432q6.885,17.07,15.455,33.407c16.03,30.567,34.966,60.519,58.637,85.783,48.393,52.745,108.628,85.01,121.95,91.793a222.075,222.075,0,0,1,61.933-133.957C179.811,518.071,103.612,381.624,153.768,262.467Z" transform="translate(18.75 -0.374)" fill="none" stroke="#10cfc9" stroke-miterlimit="10" stroke-width="0.75"/>
      </g>
      <g id="Grupo_5270" data-name="Grupo 5270" transform="translate(1508.878 0)">
        <path id="Trazado_9086" data-name="Trazado 9086" d="M255.969,533.055c73.781,42.138,182.4,40.527,239.89-28.374.284-.343.568-.68.852-1.024a146.193,146.193,0,0,0,27.819-53.683c10.185-36.716,4.419-78.636-13.632-112-16.551-30.587-50.645-62.223-88.239-54.02-69.323,15.145-67.765,125.1-47.759,174.564,6.7,16.558,14.081,33.592-.284,48.571-7.609,7.945-18.85,11.816-29.847,11.789-21.716-.06-42.693-14.194-56.378-30.283-13.077-15.369-21.769-34.166-28.691-52.97-26.485-72.071-10.059-156.579,39.318-214.958,64.72-76.523,171.082-75.426,252.545-27.086,97.09,57.62,143.99,183.447,110.372,291.752-34.84,112.254-143.118,197.422-258.6,212.428q-8.8,1.139-17.641,1.737c-168.262,11.261-323-116.316-368.98-274.335-.443-1.532-.872-3.052-1.295-4.584Q10.5,402.833,7.38,384.653c-5.852-34.014-9.022-69.3-5.588-103.754C8.16,209.6,36.382,147.364,42.828,133.884A222.1,222.1,0,0,0,173.43,202.6C121.272,314.266,143.715,468.93,255.969,533.055Z" transform="translate(-0.375 747.913)" fill="none" stroke="#10cfc9" stroke-miterlimit="10" stroke-width="0.75"/>
        <path id="Trazado_9087" data-name="Trazado 9087" d="M260.879,198.09A102.667,102.667,0,1,1,158.208,95.419,102.673,102.673,0,0,1,260.879,198.09Z" transform="translate(47.124 532.326)" fill="none" stroke="#10cfc9" stroke-miterlimit="10" stroke-width="0.75"/>
        <path id="Trazado_9088" data-name="Trazado 9088" d="M461.7,262.468c-32.971-78.306-120.2-143.059-207.732-123.3-.436.106-.865.2-1.295.3a146.073,146.073,0,0,0-54.72,25.719c-30.408,22.965-51.319,59.753-57.263,97.222-5.449,34.345,2.391,80.195,37.231,96.528,64.251,30.118,129.849-58.142,144.029-109.573,4.749-17.219,9.24-35.23,29.754-38.4,10.871-1.678,22.146,2.074,30.864,8.784,17.205,13.249,25.276,37.224,26.36,58.313,1.044,20.158-3.481,40.368-9.418,59.5-22.78,73.326-87.189,130.45-161.889,146.784-97.9,21.419-181.7-44.107-216.992-132-42.072-104.771-2.82-233.194,89.705-298.753,95.9-67.963,233.649-69.773,334.47-11.486q7.678,4.438,15.059,9.346C600.323,144.8,645.645,340.159,586.1,493.574c-.581,1.486-1.169,2.959-1.757,4.432q-6.885,17.07-15.455,33.407c-16.03,30.567-34.965,60.519-58.637,85.783-48.393,52.745-108.628,85.01-121.95,91.793a222.075,222.075,0,0,0-61.933-133.958C435.661,518.071,511.859,381.624,461.7,262.468Z" transform="translate(38.161 -0.374)" fill="none" stroke="#10cfc9" stroke-miterlimit="10" stroke-width="0.75"/>
      </g>
    </g>
  </g>
</svg>
